<mxfile host="app.diagrams.net" agent="Mozilla/5.0 (Windows NT 10.0; Win64; x64) AppleWebKit/537.36 (KHTML, like Gecko) Chrome/130.0.0.0 Safari/537.36" version="24.7.17">
  <diagram name="Seite-1" id="nUT34G9xeOLYj0SszjcQ">
    <mxGraphModel dx="989" dy="532" grid="1" gridSize="10" guides="1" tooltips="1" connect="1" arrows="1" fold="1" page="1" pageScale="1" pageWidth="827" pageHeight="1169" math="0" shadow="0">
      <root>
        <mxCell id="0" />
        <mxCell id="1" parent="0" />
        <mxCell id="TMbh94kAc-SO85xrON7S-218" value="" style="group" parent="1" vertex="1" connectable="0">
          <mxGeometry x="120" y="40" width="560" height="290" as="geometry" />
        </mxCell>
        <mxCell id="TMbh94kAc-SO85xrON7S-1" value="&lt;b&gt;&lt;font style=&quot;font-size: 14px;&quot;&gt;System&lt;/font&gt;&lt;/b&gt;" style="rounded=0;whiteSpace=wrap;html=1;fillColor=#f5f5f5;fontColor=#333333;strokeColor=#666666;verticalAlign=top;container=0;" parent="TMbh94kAc-SO85xrON7S-218" vertex="1">
          <mxGeometry width="560" height="290" as="geometry" />
        </mxCell>
        <mxCell id="TMbh94kAc-SO85xrON7S-23" style="edgeStyle=orthogonalEdgeStyle;rounded=0;orthogonalLoop=1;jettySize=auto;html=1;entryX=0;entryY=0.75;entryDx=0;entryDy=0;" parent="TMbh94kAc-SO85xrON7S-218" source="TMbh94kAc-SO85xrON7S-6" target="TMbh94kAc-SO85xrON7S-7" edge="1">
          <mxGeometry relative="1" as="geometry">
            <Array as="points">
              <mxPoint x="180" y="130" />
              <mxPoint x="180" y="130" />
            </Array>
          </mxGeometry>
        </mxCell>
        <mxCell id="TMbh94kAc-SO85xrON7S-6" value="AUS" style="rounded=1;whiteSpace=wrap;html=1;container=0;" parent="TMbh94kAc-SO85xrON7S-218" vertex="1">
          <mxGeometry x="40" y="100" width="120" height="40" as="geometry" />
        </mxCell>
        <mxCell id="TMbh94kAc-SO85xrON7S-14" style="edgeStyle=orthogonalEdgeStyle;rounded=0;orthogonalLoop=1;jettySize=auto;html=1;" parent="TMbh94kAc-SO85xrON7S-218" source="TMbh94kAc-SO85xrON7S-7" target="TMbh94kAc-SO85xrON7S-9" edge="1">
          <mxGeometry relative="1" as="geometry" />
        </mxCell>
        <mxCell id="TMbh94kAc-SO85xrON7S-24" style="edgeStyle=orthogonalEdgeStyle;rounded=0;orthogonalLoop=1;jettySize=auto;html=1;entryX=1;entryY=0.25;entryDx=0;entryDy=0;" parent="TMbh94kAc-SO85xrON7S-218" source="TMbh94kAc-SO85xrON7S-7" target="TMbh94kAc-SO85xrON7S-6" edge="1">
          <mxGeometry relative="1" as="geometry">
            <Array as="points">
              <mxPoint x="190" y="110" />
              <mxPoint x="190" y="110" />
            </Array>
          </mxGeometry>
        </mxCell>
        <mxCell id="TMbh94kAc-SO85xrON7S-52" style="edgeStyle=orthogonalEdgeStyle;rounded=0;orthogonalLoop=1;jettySize=auto;html=1;entryX=0.75;entryY=0;entryDx=0;entryDy=0;" parent="TMbh94kAc-SO85xrON7S-218" source="TMbh94kAc-SO85xrON7S-7" target="TMbh94kAc-SO85xrON7S-10" edge="1">
          <mxGeometry relative="1" as="geometry">
            <Array as="points">
              <mxPoint x="330" y="160" />
              <mxPoint x="390" y="160" />
            </Array>
          </mxGeometry>
        </mxCell>
        <mxCell id="TMbh94kAc-SO85xrON7S-7" value="BEREIT" style="rounded=1;whiteSpace=wrap;html=1;container=0;" parent="TMbh94kAc-SO85xrON7S-218" vertex="1">
          <mxGeometry x="220" y="100" width="120" height="40" as="geometry" />
        </mxCell>
        <mxCell id="TMbh94kAc-SO85xrON7S-20" style="edgeStyle=orthogonalEdgeStyle;rounded=0;orthogonalLoop=1;jettySize=auto;html=1;entryX=0.25;entryY=1;entryDx=0;entryDy=0;" parent="TMbh94kAc-SO85xrON7S-218" source="TMbh94kAc-SO85xrON7S-8" target="TMbh94kAc-SO85xrON7S-7" edge="1">
          <mxGeometry relative="1" as="geometry" />
        </mxCell>
        <mxCell id="TMbh94kAc-SO85xrON7S-8" value="GESTOPPT" style="rounded=1;whiteSpace=wrap;html=1;container=0;" parent="TMbh94kAc-SO85xrON7S-218" vertex="1">
          <mxGeometry x="120" y="200" width="120" height="40" as="geometry" />
        </mxCell>
        <mxCell id="TMbh94kAc-SO85xrON7S-15" style="edgeStyle=orthogonalEdgeStyle;rounded=0;orthogonalLoop=1;jettySize=auto;html=1;entryX=0.5;entryY=0;entryDx=0;entryDy=0;" parent="TMbh94kAc-SO85xrON7S-218" source="TMbh94kAc-SO85xrON7S-9" target="TMbh94kAc-SO85xrON7S-7" edge="1">
          <mxGeometry relative="1" as="geometry">
            <Array as="points">
              <mxPoint x="460" y="60" />
              <mxPoint x="280" y="60" />
            </Array>
          </mxGeometry>
        </mxCell>
        <mxCell id="TMbh94kAc-SO85xrON7S-16" style="edgeStyle=orthogonalEdgeStyle;rounded=0;orthogonalLoop=1;jettySize=auto;html=1;" parent="TMbh94kAc-SO85xrON7S-218" source="TMbh94kAc-SO85xrON7S-9" target="TMbh94kAc-SO85xrON7S-10" edge="1">
          <mxGeometry relative="1" as="geometry">
            <Array as="points">
              <mxPoint x="440" y="260" />
              <mxPoint x="360" y="260" />
            </Array>
          </mxGeometry>
        </mxCell>
        <mxCell id="TMbh94kAc-SO85xrON7S-17" style="edgeStyle=orthogonalEdgeStyle;rounded=0;orthogonalLoop=1;jettySize=auto;html=1;" parent="TMbh94kAc-SO85xrON7S-218" source="TMbh94kAc-SO85xrON7S-9" target="TMbh94kAc-SO85xrON7S-8" edge="1">
          <mxGeometry relative="1" as="geometry">
            <Array as="points">
              <mxPoint x="480" y="270" />
              <mxPoint x="180" y="270" />
            </Array>
          </mxGeometry>
        </mxCell>
        <mxCell id="TMbh94kAc-SO85xrON7S-9" value="LAUFEND" style="rounded=1;whiteSpace=wrap;html=1;container=0;" parent="TMbh94kAc-SO85xrON7S-218" vertex="1">
          <mxGeometry x="400" y="100" width="120" height="40" as="geometry" />
        </mxCell>
        <mxCell id="TMbh94kAc-SO85xrON7S-19" style="edgeStyle=orthogonalEdgeStyle;rounded=0;orthogonalLoop=1;jettySize=auto;html=1;entryX=0.75;entryY=1;entryDx=0;entryDy=0;" parent="TMbh94kAc-SO85xrON7S-218" source="TMbh94kAc-SO85xrON7S-10" target="TMbh94kAc-SO85xrON7S-7" edge="1">
          <mxGeometry relative="1" as="geometry">
            <Array as="points">
              <mxPoint x="330" y="180" />
              <mxPoint x="310" y="180" />
            </Array>
          </mxGeometry>
        </mxCell>
        <mxCell id="TMbh94kAc-SO85xrON7S-10" value="FEHLER" style="rounded=1;whiteSpace=wrap;html=1;container=0;" parent="TMbh94kAc-SO85xrON7S-218" vertex="1">
          <mxGeometry x="300" y="200" width="120" height="40" as="geometry" />
        </mxCell>
        <mxCell id="TMbh94kAc-SO85xrON7S-11" value="" style="ellipse;html=1;shape=startState;fillColor=#000000;strokeColor=#ff0000;container=0;" parent="TMbh94kAc-SO85xrON7S-218" vertex="1">
          <mxGeometry x="30" y="20" width="30" height="30" as="geometry" />
        </mxCell>
        <mxCell id="TMbh94kAc-SO85xrON7S-12" value="" style="edgeStyle=orthogonalEdgeStyle;html=1;verticalAlign=bottom;endArrow=classic;endSize=8;strokeColor=#ff0000;rounded=0;endFill=1;" parent="TMbh94kAc-SO85xrON7S-218" source="TMbh94kAc-SO85xrON7S-11" edge="1">
          <mxGeometry relative="1" as="geometry">
            <mxPoint x="95" y="100" as="targetPoint" />
          </mxGeometry>
        </mxCell>
        <mxCell id="TMbh94kAc-SO85xrON7S-95" value="Einschalten" style="text;html=1;align=center;verticalAlign=middle;whiteSpace=wrap;rounded=0;fontSize=6;container=0;" parent="TMbh94kAc-SO85xrON7S-218" vertex="1">
          <mxGeometry x="160" y="120" width="60" height="10" as="geometry" />
        </mxCell>
        <mxCell id="TMbh94kAc-SO85xrON7S-96" value="Ausschalten" style="text;html=1;align=center;verticalAlign=middle;whiteSpace=wrap;rounded=0;fontSize=6;container=0;" parent="TMbh94kAc-SO85xrON7S-218" vertex="1">
          <mxGeometry x="160" y="100" width="60" height="10" as="geometry" />
        </mxCell>
        <mxCell id="TMbh94kAc-SO85xrON7S-118" value="Starten" style="text;html=1;align=center;verticalAlign=middle;whiteSpace=wrap;rounded=0;fontSize=6;container=0;" parent="TMbh94kAc-SO85xrON7S-218" vertex="1">
          <mxGeometry x="340" y="110" width="60" height="10" as="geometry" />
        </mxCell>
        <mxCell id="TMbh94kAc-SO85xrON7S-140" value="Stoppen" style="text;html=1;align=center;verticalAlign=middle;whiteSpace=wrap;rounded=0;fontSize=6;container=0;" parent="TMbh94kAc-SO85xrON7S-218" vertex="1">
          <mxGeometry x="180" y="260" width="60" height="10" as="geometry" />
        </mxCell>
        <mxCell id="TMbh94kAc-SO85xrON7S-163" value="Fehler" style="text;html=1;align=center;verticalAlign=middle;whiteSpace=wrap;rounded=0;fontSize=6;container=0;" parent="TMbh94kAc-SO85xrON7S-218" vertex="1">
          <mxGeometry x="370" y="250" width="60" height="10" as="geometry" />
        </mxCell>
        <mxCell id="TMbh94kAc-SO85xrON7S-164" value="Fehler" style="text;html=1;align=center;verticalAlign=middle;whiteSpace=wrap;rounded=0;fontSize=6;container=0;" parent="TMbh94kAc-SO85xrON7S-218" vertex="1">
          <mxGeometry x="330" y="150" width="60" height="10" as="geometry" />
        </mxCell>
        <mxCell id="TMbh94kAc-SO85xrON7S-190" value="Resetten" style="text;html=1;align=center;verticalAlign=middle;whiteSpace=wrap;rounded=0;fontSize=6;container=0;" parent="TMbh94kAc-SO85xrON7S-218" vertex="1">
          <mxGeometry x="300" y="169" width="60" height="10" as="geometry" />
        </mxCell>
        <mxCell id="TMbh94kAc-SO85xrON7S-216" value="Abgeschlossen" style="text;html=1;align=center;verticalAlign=middle;whiteSpace=wrap;rounded=0;fontSize=6;container=0;" parent="TMbh94kAc-SO85xrON7S-218" vertex="1">
          <mxGeometry x="340" y="50" width="60" height="10" as="geometry" />
        </mxCell>
        <mxCell id="TMbh94kAc-SO85xrON7S-217" value="Resetten" style="text;html=1;align=center;verticalAlign=middle;whiteSpace=wrap;rounded=0;fontSize=6;container=0;" parent="TMbh94kAc-SO85xrON7S-218" vertex="1">
          <mxGeometry x="190" y="160" width="60" height="10" as="geometry" />
        </mxCell>
        <mxCell id="TMbh94kAc-SO85xrON7S-257" value="" style="group" parent="1" vertex="1" connectable="0">
          <mxGeometry x="120" y="370" width="560" height="280" as="geometry" />
        </mxCell>
        <mxCell id="TMbh94kAc-SO85xrON7S-27" value="&lt;b&gt;&lt;font style=&quot;font-size: 14px;&quot;&gt;Skill&lt;/font&gt;&lt;/b&gt;" style="rounded=0;whiteSpace=wrap;html=1;fillColor=#fff2cc;strokeColor=#d6b656;verticalAlign=top;" parent="TMbh94kAc-SO85xrON7S-257" vertex="1">
          <mxGeometry width="560" height="280" as="geometry" />
        </mxCell>
        <mxCell id="TMbh94kAc-SO85xrON7S-56" style="edgeStyle=orthogonalEdgeStyle;rounded=0;orthogonalLoop=1;jettySize=auto;html=1;entryX=0.5;entryY=0;entryDx=0;entryDy=0;" parent="TMbh94kAc-SO85xrON7S-257" edge="1">
          <mxGeometry relative="1" as="geometry">
            <mxPoint x="268" y="100" as="sourcePoint" />
            <mxPoint x="268" y="180" as="targetPoint" />
          </mxGeometry>
        </mxCell>
        <mxCell id="TMbh94kAc-SO85xrON7S-66" style="edgeStyle=orthogonalEdgeStyle;rounded=0;orthogonalLoop=1;jettySize=auto;html=1;entryX=1;entryY=0.25;entryDx=0;entryDy=0;" parent="TMbh94kAc-SO85xrON7S-257" source="TMbh94kAc-SO85xrON7S-45" target="TMbh94kAc-SO85xrON7S-51" edge="1">
          <mxGeometry relative="1" as="geometry">
            <Array as="points">
              <mxPoint x="250" y="130" />
            </Array>
          </mxGeometry>
        </mxCell>
        <mxCell id="TMbh94kAc-SO85xrON7S-45" value="BEREIT" style="rounded=1;whiteSpace=wrap;html=1;" parent="TMbh94kAc-SO85xrON7S-257" vertex="1">
          <mxGeometry x="219" y="60" width="120" height="40" as="geometry" />
        </mxCell>
        <mxCell id="TMbh94kAc-SO85xrON7S-54" style="edgeStyle=orthogonalEdgeStyle;rounded=0;orthogonalLoop=1;jettySize=auto;html=1;entryX=0;entryY=0.5;entryDx=0;entryDy=0;" parent="TMbh94kAc-SO85xrON7S-257" source="TMbh94kAc-SO85xrON7S-47" target="TMbh94kAc-SO85xrON7S-50" edge="1">
          <mxGeometry relative="1" as="geometry">
            <Array as="points">
              <mxPoint x="369" y="190" />
              <mxPoint x="369" y="150" />
            </Array>
          </mxGeometry>
        </mxCell>
        <mxCell id="TMbh94kAc-SO85xrON7S-55" style="edgeStyle=orthogonalEdgeStyle;rounded=0;orthogonalLoop=1;jettySize=auto;html=1;entryX=0;entryY=0.5;entryDx=0;entryDy=0;" parent="TMbh94kAc-SO85xrON7S-257" source="TMbh94kAc-SO85xrON7S-47" target="TMbh94kAc-SO85xrON7S-48" edge="1">
          <mxGeometry relative="1" as="geometry">
            <Array as="points">
              <mxPoint x="369" y="210" />
              <mxPoint x="369" y="240" />
            </Array>
          </mxGeometry>
        </mxCell>
        <mxCell id="TMbh94kAc-SO85xrON7S-61" style="edgeStyle=orthogonalEdgeStyle;rounded=0;orthogonalLoop=1;jettySize=auto;html=1;entryX=1;entryY=0.75;entryDx=0;entryDy=0;" parent="TMbh94kAc-SO85xrON7S-257" source="TMbh94kAc-SO85xrON7S-47" target="TMbh94kAc-SO85xrON7S-51" edge="1">
          <mxGeometry relative="1" as="geometry">
            <Array as="points">
              <mxPoint x="195" y="190" />
              <mxPoint x="195" y="150" />
            </Array>
          </mxGeometry>
        </mxCell>
        <mxCell id="TMbh94kAc-SO85xrON7S-62" style="edgeStyle=orthogonalEdgeStyle;rounded=0;orthogonalLoop=1;jettySize=auto;html=1;" parent="TMbh94kAc-SO85xrON7S-257" source="TMbh94kAc-SO85xrON7S-47" target="TMbh94kAc-SO85xrON7S-49" edge="1">
          <mxGeometry relative="1" as="geometry">
            <Array as="points">
              <mxPoint x="195" y="210" />
              <mxPoint x="195" y="240" />
            </Array>
          </mxGeometry>
        </mxCell>
        <mxCell id="3WOX_D658Z19YrmmToyO-32" style="edgeStyle=orthogonalEdgeStyle;rounded=0;orthogonalLoop=1;jettySize=auto;html=1;entryX=0.5;entryY=1;entryDx=0;entryDy=0;" edge="1" parent="TMbh94kAc-SO85xrON7S-257">
          <mxGeometry relative="1" as="geometry">
            <mxPoint x="300" y="180" as="sourcePoint" />
            <mxPoint x="300" y="100" as="targetPoint" />
          </mxGeometry>
        </mxCell>
        <mxCell id="TMbh94kAc-SO85xrON7S-47" value="LAUFEND" style="rounded=1;whiteSpace=wrap;html=1;" parent="TMbh94kAc-SO85xrON7S-257" vertex="1">
          <mxGeometry x="219" y="180" width="120" height="40" as="geometry" />
        </mxCell>
        <mxCell id="TMbh94kAc-SO85xrON7S-60" style="edgeStyle=orthogonalEdgeStyle;rounded=0;orthogonalLoop=1;jettySize=auto;html=1;entryX=1;entryY=0.25;entryDx=0;entryDy=0;" parent="TMbh94kAc-SO85xrON7S-257" source="TMbh94kAc-SO85xrON7S-48" target="TMbh94kAc-SO85xrON7S-45" edge="1">
          <mxGeometry relative="1" as="geometry">
            <Array as="points">
              <mxPoint x="550" y="240" />
              <mxPoint x="550" y="70" />
            </Array>
          </mxGeometry>
        </mxCell>
        <mxCell id="TMbh94kAc-SO85xrON7S-48" value="ERREICHT" style="rounded=1;whiteSpace=wrap;html=1;" parent="TMbh94kAc-SO85xrON7S-257" vertex="1">
          <mxGeometry x="414" y="220" width="120" height="40" as="geometry" />
        </mxCell>
        <mxCell id="TMbh94kAc-SO85xrON7S-63" style="edgeStyle=orthogonalEdgeStyle;rounded=0;orthogonalLoop=1;jettySize=auto;html=1;entryX=0;entryY=0.25;entryDx=0;entryDy=0;" parent="TMbh94kAc-SO85xrON7S-257" source="TMbh94kAc-SO85xrON7S-49" target="TMbh94kAc-SO85xrON7S-45" edge="1">
          <mxGeometry relative="1" as="geometry">
            <Array as="points">
              <mxPoint x="20" y="240" />
              <mxPoint x="20" y="70" />
            </Array>
          </mxGeometry>
        </mxCell>
        <mxCell id="TMbh94kAc-SO85xrON7S-49" value="LIMIT" style="rounded=1;whiteSpace=wrap;html=1;" parent="TMbh94kAc-SO85xrON7S-257" vertex="1">
          <mxGeometry x="50" y="220" width="120" height="40" as="geometry" />
        </mxCell>
        <mxCell id="TMbh94kAc-SO85xrON7S-59" style="edgeStyle=orthogonalEdgeStyle;rounded=0;orthogonalLoop=1;jettySize=auto;html=1;entryX=1;entryY=0.75;entryDx=0;entryDy=0;" parent="TMbh94kAc-SO85xrON7S-257" source="TMbh94kAc-SO85xrON7S-50" target="TMbh94kAc-SO85xrON7S-45" edge="1">
          <mxGeometry relative="1" as="geometry">
            <Array as="points">
              <mxPoint x="474" y="90" />
            </Array>
          </mxGeometry>
        </mxCell>
        <mxCell id="TMbh94kAc-SO85xrON7S-50" value="ABGESCHLOSSEN" style="rounded=1;whiteSpace=wrap;html=1;" parent="TMbh94kAc-SO85xrON7S-257" vertex="1">
          <mxGeometry x="414" y="130" width="120" height="40" as="geometry" />
        </mxCell>
        <mxCell id="TMbh94kAc-SO85xrON7S-65" style="edgeStyle=orthogonalEdgeStyle;rounded=0;orthogonalLoop=1;jettySize=auto;html=1;entryX=0;entryY=0.75;entryDx=0;entryDy=0;" parent="TMbh94kAc-SO85xrON7S-257" source="TMbh94kAc-SO85xrON7S-51" target="TMbh94kAc-SO85xrON7S-45" edge="1">
          <mxGeometry relative="1" as="geometry">
            <Array as="points">
              <mxPoint x="110" y="90" />
            </Array>
          </mxGeometry>
        </mxCell>
        <mxCell id="TMbh94kAc-SO85xrON7S-51" value="FEHLER" style="rounded=1;whiteSpace=wrap;html=1;" parent="TMbh94kAc-SO85xrON7S-257" vertex="1">
          <mxGeometry x="50" y="120" width="120" height="40" as="geometry" />
        </mxCell>
        <mxCell id="TMbh94kAc-SO85xrON7S-67" value="" style="ellipse;html=1;shape=startState;fillColor=#000000;strokeColor=#ff0000;" parent="TMbh94kAc-SO85xrON7S-257" vertex="1">
          <mxGeometry x="30" y="20" width="30" height="30" as="geometry" />
        </mxCell>
        <mxCell id="TMbh94kAc-SO85xrON7S-68" value="" style="edgeStyle=orthogonalEdgeStyle;html=1;verticalAlign=bottom;endArrow=classic;endSize=8;strokeColor=#ff0000;rounded=0;endFill=1;entryX=0.5;entryY=0;entryDx=0;entryDy=0;" parent="TMbh94kAc-SO85xrON7S-257" source="TMbh94kAc-SO85xrON7S-67" target="TMbh94kAc-SO85xrON7S-45" edge="1">
          <mxGeometry relative="1" as="geometry">
            <mxPoint x="25" y="80" as="targetPoint" />
          </mxGeometry>
        </mxCell>
        <mxCell id="TMbh94kAc-SO85xrON7S-219" value="Starten" style="text;html=1;align=left;verticalAlign=middle;whiteSpace=wrap;rounded=0;fontSize=6;container=0;" parent="TMbh94kAc-SO85xrON7S-257" vertex="1">
          <mxGeometry x="240" y="145" width="60" height="10" as="geometry" />
        </mxCell>
        <mxCell id="TMbh94kAc-SO85xrON7S-247" value="Objekt fertig" style="text;html=1;align=center;verticalAlign=middle;whiteSpace=wrap;rounded=0;fontSize=6;container=0;" parent="TMbh94kAc-SO85xrON7S-257" vertex="1">
          <mxGeometry x="355" y="140" width="60" height="10" as="geometry" />
        </mxCell>
        <mxCell id="TMbh94kAc-SO85xrON7S-248" value="Skill fertig" style="text;html=1;align=center;verticalAlign=middle;whiteSpace=wrap;rounded=0;fontSize=6;container=0;" parent="TMbh94kAc-SO85xrON7S-257" vertex="1">
          <mxGeometry x="380" y="80" width="60" height="10" as="geometry" />
        </mxCell>
        <mxCell id="TMbh94kAc-SO85xrON7S-250" value="Resetten" style="text;html=1;align=center;verticalAlign=middle;whiteSpace=wrap;rounded=0;fontSize=6;container=0;" parent="TMbh94kAc-SO85xrON7S-257" vertex="1">
          <mxGeometry x="140" y="80" width="60" height="10" as="geometry" />
        </mxCell>
        <mxCell id="TMbh94kAc-SO85xrON7S-251" value="Resetten" style="text;html=1;align=center;verticalAlign=middle;whiteSpace=wrap;rounded=0;fontSize=6;container=0;" parent="TMbh94kAc-SO85xrON7S-257" vertex="1">
          <mxGeometry x="80" y="60" width="60" height="10" as="geometry" />
        </mxCell>
        <mxCell id="TMbh94kAc-SO85xrON7S-252" value="Skill fertig" style="text;html=1;align=center;verticalAlign=middle;whiteSpace=wrap;rounded=0;fontSize=6;container=0;" parent="TMbh94kAc-SO85xrON7S-257" vertex="1">
          <mxGeometry x="440" y="60" width="60" height="10" as="geometry" />
        </mxCell>
        <mxCell id="TMbh94kAc-SO85xrON7S-253" value="Wert erreicht" style="text;html=1;align=center;verticalAlign=middle;whiteSpace=wrap;rounded=0;fontSize=6;container=0;" parent="TMbh94kAc-SO85xrON7S-257" vertex="1">
          <mxGeometry x="354" y="240" width="60" height="10" as="geometry" />
        </mxCell>
        <mxCell id="TMbh94kAc-SO85xrON7S-254" value="Limit überschritten" style="text;html=1;align=center;verticalAlign=middle;whiteSpace=wrap;rounded=0;fontSize=6;container=0;" parent="TMbh94kAc-SO85xrON7S-257" vertex="1">
          <mxGeometry x="177" y="240" width="60" height="10" as="geometry" />
        </mxCell>
        <mxCell id="TMbh94kAc-SO85xrON7S-255" value="Fehler" style="text;html=1;align=center;verticalAlign=middle;whiteSpace=wrap;rounded=0;fontSize=6;container=0;" parent="TMbh94kAc-SO85xrON7S-257" vertex="1">
          <mxGeometry x="180" y="120" width="60" height="10" as="geometry" />
        </mxCell>
        <mxCell id="TMbh94kAc-SO85xrON7S-256" value="Fehler" style="text;html=1;align=center;verticalAlign=middle;whiteSpace=wrap;rounded=0;fontSize=6;container=0;" parent="TMbh94kAc-SO85xrON7S-257" vertex="1">
          <mxGeometry x="160" y="140" width="60" height="10" as="geometry" />
        </mxCell>
        <mxCell id="3WOX_D658Z19YrmmToyO-33" value="Stoppen" style="text;html=1;align=left;verticalAlign=middle;whiteSpace=wrap;rounded=0;fontSize=6;container=0;" vertex="1" parent="TMbh94kAc-SO85xrON7S-257">
          <mxGeometry x="300" y="135" width="60" height="10" as="geometry" />
        </mxCell>
        <mxCell id="TMbh94kAc-SO85xrON7S-70" value="&lt;b&gt;&lt;font style=&quot;font-size: 14px;&quot;&gt;Objekt&lt;/font&gt;&lt;/b&gt;" style="rounded=0;whiteSpace=wrap;html=1;fillColor=#f8cecc;strokeColor=#b85450;verticalAlign=top;" parent="1" vertex="1">
          <mxGeometry x="120" y="692" width="560" height="320" as="geometry" />
        </mxCell>
        <mxCell id="TMbh94kAc-SO85xrON7S-81" style="edgeStyle=orthogonalEdgeStyle;rounded=0;orthogonalLoop=1;jettySize=auto;html=1;entryX=0;entryY=0.75;entryDx=0;entryDy=0;" parent="1" source="TMbh94kAc-SO85xrON7S-71" target="TMbh94kAc-SO85xrON7S-73" edge="1">
          <mxGeometry relative="1" as="geometry">
            <Array as="points">
              <mxPoint x="290" y="820" />
              <mxPoint x="290" y="820" />
            </Array>
          </mxGeometry>
        </mxCell>
        <mxCell id="TMbh94kAc-SO85xrON7S-71" value="AUS" style="rounded=1;whiteSpace=wrap;html=1;" parent="1" vertex="1">
          <mxGeometry x="149" y="790" width="120" height="40" as="geometry" />
        </mxCell>
        <mxCell id="TMbh94kAc-SO85xrON7S-86" style="edgeStyle=orthogonalEdgeStyle;rounded=0;orthogonalLoop=1;jettySize=auto;html=1;exitX=1;exitY=0.75;exitDx=0;exitDy=0;entryX=0;entryY=0.5;entryDx=0;entryDy=0;" parent="1" source="TMbh94kAc-SO85xrON7S-73" target="TMbh94kAc-SO85xrON7S-74" edge="1">
          <mxGeometry relative="1" as="geometry" />
        </mxCell>
        <mxCell id="TMbh94kAc-SO85xrON7S-87" style="edgeStyle=orthogonalEdgeStyle;rounded=0;orthogonalLoop=1;jettySize=auto;html=1;exitX=1;exitY=0.25;exitDx=0;exitDy=0;entryX=0;entryY=0.75;entryDx=0;entryDy=0;" parent="1" source="TMbh94kAc-SO85xrON7S-73" target="TMbh94kAc-SO85xrON7S-75" edge="1">
          <mxGeometry relative="1" as="geometry" />
        </mxCell>
        <mxCell id="TMbh94kAc-SO85xrON7S-263" style="edgeStyle=orthogonalEdgeStyle;rounded=0;orthogonalLoop=1;jettySize=auto;html=1;exitX=0;exitY=0.25;exitDx=0;exitDy=0;entryX=1;entryY=0.25;entryDx=0;entryDy=0;" parent="1" source="TMbh94kAc-SO85xrON7S-73" target="TMbh94kAc-SO85xrON7S-71" edge="1">
          <mxGeometry relative="1" as="geometry" />
        </mxCell>
        <mxCell id="TMbh94kAc-SO85xrON7S-73" value="BEREIT" style="rounded=1;whiteSpace=wrap;html=1;" parent="1" vertex="1">
          <mxGeometry x="331" y="790" width="120" height="40" as="geometry" />
        </mxCell>
        <mxCell id="TMbh94kAc-SO85xrON7S-83" style="edgeStyle=orthogonalEdgeStyle;rounded=0;orthogonalLoop=1;jettySize=auto;html=1;entryX=0.5;entryY=1;entryDx=0;entryDy=0;" parent="1" source="TMbh94kAc-SO85xrON7S-74" target="TMbh94kAc-SO85xrON7S-75" edge="1">
          <mxGeometry relative="1" as="geometry" />
        </mxCell>
        <mxCell id="TMbh94kAc-SO85xrON7S-88" style="edgeStyle=orthogonalEdgeStyle;rounded=0;orthogonalLoop=1;jettySize=auto;html=1;entryX=0.5;entryY=0;entryDx=0;entryDy=0;" parent="1" source="TMbh94kAc-SO85xrON7S-74" target="TMbh94kAc-SO85xrON7S-76" edge="1">
          <mxGeometry relative="1" as="geometry" />
        </mxCell>
        <mxCell id="TMbh94kAc-SO85xrON7S-93" style="edgeStyle=orthogonalEdgeStyle;rounded=0;orthogonalLoop=1;jettySize=auto;html=1;exitX=1;exitY=0.25;exitDx=0;exitDy=0;entryX=0.5;entryY=1;entryDx=0;entryDy=0;" parent="1" source="TMbh94kAc-SO85xrON7S-74" target="TMbh94kAc-SO85xrON7S-78" edge="1">
          <mxGeometry relative="1" as="geometry">
            <Array as="points">
              <mxPoint x="642" y="850" />
              <mxPoint x="671" y="850" />
              <mxPoint x="671" y="1002" />
              <mxPoint x="391" y="1002" />
            </Array>
          </mxGeometry>
        </mxCell>
        <mxCell id="TMbh94kAc-SO85xrON7S-74" value="LAUFEND" style="rounded=1;whiteSpace=wrap;html=1;" parent="1" vertex="1">
          <mxGeometry x="522" y="830" width="120" height="40" as="geometry" />
        </mxCell>
        <mxCell id="TMbh94kAc-SO85xrON7S-84" style="edgeStyle=orthogonalEdgeStyle;rounded=0;orthogonalLoop=1;jettySize=auto;html=1;" parent="1" edge="1">
          <mxGeometry relative="1" as="geometry">
            <mxPoint x="522" y="752" as="sourcePoint" />
            <mxPoint x="420" y="790" as="targetPoint" />
            <Array as="points">
              <mxPoint x="420" y="752" />
              <mxPoint x="420" y="790" />
            </Array>
          </mxGeometry>
        </mxCell>
        <mxCell id="TMbh94kAc-SO85xrON7S-75" value="FEHLER" style="rounded=1;whiteSpace=wrap;html=1;" parent="1" vertex="1">
          <mxGeometry x="522" y="740" width="120" height="40" as="geometry" />
        </mxCell>
        <mxCell id="TMbh94kAc-SO85xrON7S-89" style="edgeStyle=orthogonalEdgeStyle;rounded=0;orthogonalLoop=1;jettySize=auto;html=1;exitX=0.25;exitY=0;exitDx=0;exitDy=0;entryX=0.75;entryY=1;entryDx=0;entryDy=0;" parent="1" source="TMbh94kAc-SO85xrON7S-76" target="TMbh94kAc-SO85xrON7S-73" edge="1">
          <mxGeometry relative="1" as="geometry">
            <Array as="points">
              <mxPoint x="552" y="892" />
              <mxPoint x="421" y="892" />
            </Array>
          </mxGeometry>
        </mxCell>
        <mxCell id="TMbh94kAc-SO85xrON7S-76" value="ABGESCHLOSSEN&lt;div&gt;&lt;font style=&quot;font-size: 8px;&quot;&gt;(Intern gestoppt)&lt;/font&gt;&lt;/div&gt;" style="rounded=1;whiteSpace=wrap;html=1;" parent="1" vertex="1">
          <mxGeometry x="522" y="922" width="120" height="40" as="geometry" />
        </mxCell>
        <mxCell id="3WOX_D658Z19YrmmToyO-1" style="edgeStyle=orthogonalEdgeStyle;rounded=0;orthogonalLoop=1;jettySize=auto;html=1;entryX=0.5;entryY=1;entryDx=0;entryDy=0;" edge="1" parent="1" source="TMbh94kAc-SO85xrON7S-78" target="TMbh94kAc-SO85xrON7S-73">
          <mxGeometry relative="1" as="geometry" />
        </mxCell>
        <mxCell id="TMbh94kAc-SO85xrON7S-78" value="GESTOPPT&lt;div&gt;&lt;font style=&quot;font-size: 8px;&quot;&gt;(Extern gestoppt)&lt;/font&gt;&lt;/div&gt;" style="rounded=1;whiteSpace=wrap;html=1;" parent="1" vertex="1">
          <mxGeometry x="331" y="922" width="120" height="40" as="geometry" />
        </mxCell>
        <mxCell id="TMbh94kAc-SO85xrON7S-79" value="" style="ellipse;html=1;shape=startState;fillColor=#000000;strokeColor=#ff0000;" parent="1" vertex="1">
          <mxGeometry x="149" y="710" width="30" height="30" as="geometry" />
        </mxCell>
        <mxCell id="TMbh94kAc-SO85xrON7S-80" value="" style="edgeStyle=orthogonalEdgeStyle;html=1;verticalAlign=bottom;endArrow=classic;endSize=8;strokeColor=#ff0000;rounded=0;endFill=1;" parent="1" source="TMbh94kAc-SO85xrON7S-79" edge="1">
          <mxGeometry relative="1" as="geometry">
            <mxPoint x="214" y="790" as="targetPoint" />
          </mxGeometry>
        </mxCell>
        <mxCell id="TMbh94kAc-SO85xrON7S-258" value="Fehler" style="text;html=1;align=center;verticalAlign=middle;whiteSpace=wrap;rounded=0;fontSize=6;container=0;" parent="1" vertex="1">
          <mxGeometry x="440" y="790" width="60" height="10" as="geometry" />
        </mxCell>
        <mxCell id="TMbh94kAc-SO85xrON7S-259" value="Fehler" style="text;html=1;align=center;verticalAlign=middle;whiteSpace=wrap;rounded=0;fontSize=6;container=0;" parent="1" vertex="1">
          <mxGeometry x="565" y="800" width="60" height="10" as="geometry" />
        </mxCell>
        <mxCell id="TMbh94kAc-SO85xrON7S-260" value="Resetten" style="text;html=1;align=center;verticalAlign=middle;whiteSpace=wrap;rounded=0;fontSize=6;container=0;" parent="1" vertex="1">
          <mxGeometry x="420" y="742" width="60" height="10" as="geometry" />
        </mxCell>
        <mxCell id="TMbh94kAc-SO85xrON7S-264" value="Einschalten" style="text;html=1;align=center;verticalAlign=middle;whiteSpace=wrap;rounded=0;fontSize=6;container=0;" parent="1" vertex="1">
          <mxGeometry x="269" y="810" width="60" height="10" as="geometry" />
        </mxCell>
        <mxCell id="TMbh94kAc-SO85xrON7S-265" value="Ausschalten" style="text;html=1;align=center;verticalAlign=middle;whiteSpace=wrap;rounded=0;fontSize=6;container=0;" parent="1" vertex="1">
          <mxGeometry x="269" y="790" width="60" height="10" as="geometry" />
        </mxCell>
        <mxCell id="TMbh94kAc-SO85xrON7S-266" value="Starten" style="text;html=1;align=center;verticalAlign=middle;whiteSpace=wrap;rounded=0;fontSize=6;container=0;" parent="1" vertex="1">
          <mxGeometry x="440" y="810" width="60" height="10" as="geometry" />
        </mxCell>
        <mxCell id="TMbh94kAc-SO85xrON7S-268" value="Objekt fertig" style="text;html=1;align=left;verticalAlign=middle;whiteSpace=wrap;rounded=0;fontSize=6;container=0;" parent="1" vertex="1">
          <mxGeometry x="582" y="890" width="60" height="10" as="geometry" />
        </mxCell>
        <mxCell id="TMbh94kAc-SO85xrON7S-272" value="Stoppen" style="text;html=1;align=left;verticalAlign=middle;whiteSpace=wrap;rounded=0;fontSize=6;container=0;" parent="1" vertex="1">
          <mxGeometry x="391" y="980" width="60" height="10" as="geometry" />
        </mxCell>
        <mxCell id="TMbh94kAc-SO85xrON7S-274" value="Resetten" style="text;html=1;align=left;verticalAlign=middle;whiteSpace=wrap;rounded=0;fontSize=6;container=0;" parent="1" vertex="1">
          <mxGeometry x="391" y="900" width="60" height="10" as="geometry" />
        </mxCell>
        <mxCell id="TMbh94kAc-SO85xrON7S-275" value="Resetten" style="text;html=1;align=center;verticalAlign=middle;whiteSpace=wrap;rounded=0;fontSize=6;container=0;" parent="1" vertex="1">
          <mxGeometry x="451" y="881" width="60" height="10" as="geometry" />
        </mxCell>
      </root>
    </mxGraphModel>
  </diagram>
</mxfile>
